<?xml version="1.0" standalone="no"?>
<!DOCTYPE svg PUBLIC "-//W3C//DTD SVG 20010904//EN"
 "http://www.w3.org/TR/2001/REC-SVG-20010904/DTD/svg10.dtd">
<svg version="1.0" xmlns="http://www.w3.org/2000/svg"
 width="300.000000pt" height="300.000000pt" viewBox="0 0 300.000000 300.000000"
 preserveAspectRatio="xMidYMid meet">
<metadata>
Created by potrace 1.10, written by Peter Selinger 2001-2011
</metadata>
<g transform="translate(0.000000,300.000000) scale(0.100000,-0.100000)"
fill="#000000" stroke="none">
<path d="M480 1503 l0 -248 55 0 55 0 0 65 c0 105 43 154 148 167 44 5 49 9
68 49 l21 44 -37 0 c-54 0 -135 -27 -170 -56 l-30 -26 0 76 0 76 120 0 120 0
0 50 0 50 -175 0 -175 0 0 -247z m305 197 c8 -12 10 -12 -100 -15 -111 -4
-125 -16 -125 -107 0 -49 4 -63 25 -84 l24 -24 -24 -36 c-17 -24 -25 -51 -25
-78 0 -46 -12 -72 -29 -62 -7 5 -11 72 -11 212 l0 204 129 0 c76 0 132 -4 136
-10z"/>
<path d="M1710 1746 c0 -3 0 -115 -1 -248 l0 -243 46 -3 45 -3 0 148 1 148 58
-145 c52 -128 62 -145 82 -145 20 0 30 17 78 137 31 75 59 140 63 144 4 4 5
-59 1 -140 l-6 -146 51 0 52 0 0 251 0 252 -51 -6 c-28 -4 -56 -11 -63 -16 -6
-5 -36 -78 -66 -160 -30 -83 -57 -151 -60 -151 -3 0 -27 64 -55 142 -27 78
-57 150 -65 161 -15 18 -110 38 -110 23z m88 -56 c10 -11 24 -40 31 -63 7 -23
16 -51 21 -62 5 -11 19 -45 30 -76 11 -31 29 -64 40 -74 20 -18 21 -18 48 8
15 15 33 47 40 73 7 25 26 81 43 125 24 63 35 80 55 85 14 4 27 5 29 3 4 -5 7
-112 6 -283 -1 -154 -17 -160 -23 -9 -3 80 -7 107 -21 120 -16 16 -19 16 -43
-8 -14 -14 -42 -68 -63 -120 -20 -52 -43 -94 -50 -94 -7 0 -27 36 -45 80 -61
149 -81 174 -111 132 -11 -15 -15 -47 -15 -108 0 -91 -6 -123 -21 -113 -10 6
-12 387 -2 397 12 13 32 7 51 -13z"/>
<path d="M883 1565 c-17 -7 -36 -22 -42 -34 -6 -11 -11 -75 -11 -148 l0 -128
45 0 45 -1 0 118 c0 116 1 119 24 128 13 5 32 7 42 4 13 -3 27 8 46 36 l28 40
-73 0 c-39 -1 -86 -7 -104 -15z m41 -37 c-4 -7 -14 -21 -22 -31 -11 -12 -17
-46 -20 -107 -3 -50 -8 -90 -13 -90 -5 0 -9 45 -9 100 0 87 3 103 20 120 22
22 56 28 44 8z"/>
<path d="M1126 1570 c-62 -20 -96 -73 -96 -152 0 -107 55 -158 171 -158 71 0
116 21 147 68 14 22 14 22 -36 22 -32 0 -54 -5 -62 -15 -32 -39 -130 -5 -130
45 0 19 7 20 120 20 l120 0 0 33 c0 41 -28 95 -61 120 -30 21 -128 32 -173 17z
m-23 -62 c-10 -17 -10 -39 0 -61 5 -12 4 -30 -4 -48 -9 -24 -9 -36 0 -57 l12
-27 -22 22 c-32 31 -37 107 -10 151 12 17 23 32 26 32 4 0 3 -6 -2 -12z m150
-20 c9 -11 17 -24 17 -29 0 -5 -34 -9 -75 -9 -41 0 -75 3 -75 6 0 3 5 14 11
25 22 42 89 46 122 7z m55 -2 c14 -28 10 -56 -8 -56 -5 0 -10 15 -10 33 0 18
-6 39 -12 46 -11 11 -10 13 2 9 8 -2 21 -17 28 -32z"/>
<path d="M1454 1561 c-50 -23 -69 -64 -52 -111 12 -36 42 -53 117 -69 30 -6
61 -17 68 -23 38 -31 -62 -54 -103 -23 -20 15 -94 21 -94 7 0 -16 33 -53 60
-67 57 -30 189 -14 210 25 16 31 12 88 -9 109 -10 10 -53 26 -95 36 -77 17
-104 37 -75 56 8 5 53 6 103 3 88 -7 88 -7 77 15 -30 55 -135 77 -207 42z
m171 -181 c14 -16 16 -24 7 -42 -10 -22 -11 -22 -11 -3 -1 11 -8 31 -17 43
-19 27 -4 29 21 2z"/>
<path d="M2305 1566 c-109 -49 -124 -217 -26 -283 42 -29 119 -31 163 -5 93
55 98 208 7 273 -38 27 -104 34 -144 15z m175 -148 c0 -36 -6 -53 -26 -75
l-25 -28 15 32 c20 40 20 100 1 133 -22 39 -17 46 10 14 19 -22 25 -40 25 -76z
m-199 64 c-16 -30 -13 -98 4 -132 10 -19 11 -30 5 -30 -6 0 -20 21 -31 46 -22
48 -20 80 7 122 18 28 30 23 15 -6z m104 22 c21 -9 45 -56 45 -91 0 -32 -22
-68 -50 -83 -60 -32 -108 91 -59 154 21 26 35 31 64 20z"/>
</g>
</svg>
